<svg xmlns="http://www.w3.org/2000/svg" xmlns:xlink="http://www.w3.org/1999/xlink" version="1.1" id="Layer_1" x="0px" y="0px" width="100px" height="100px" viewBox="0 0 100 100" enable-background="new 0 0 100 100" xml:space="preserve">
<path d="M60.545,32.944l-5.687,5.687c2.929,2.9,4.743,6.922,4.743,11.369c0,4.446-1.814,8.469-4.743,11.368l5.687,5.687  c4.361-4.367,7.059-10.396,7.059-17.055C67.604,43.34,64.906,37.312,60.545,32.944z"/>
<path d="M83.605,50c0-11.075-4.501-21.099-11.772-28.343l-5.63,5.63c5.809,5.815,9.401,13.844,9.401,22.713  c0,8.868-3.593,16.897-9.401,22.713l5.63,5.63C79.104,71.099,83.605,61.075,83.605,50z"/>
<path d="M99.608,50c0-15.495-6.293-29.519-16.46-39.659l-5.658,5.658C86.21,24.691,91.606,36.715,91.606,50  c0,13.284-5.396,25.309-14.116,34l5.658,5.658C93.315,79.519,99.608,65.494,99.608,50z"/>
<polygon points="0,66 21.085,66 44,87.208 44,12.791 21.517,34 0,34 "/>
</svg>