<?xml version="1.0" encoding="utf-8"?>
<!-- Generator: Adobe Illustrator 16.0.0, SVG Export Plug-In . SVG Version: 6.00 Build 0)  -->
<!DOCTYPE svg PUBLIC "-//W3C//DTD SVG 1.1//EN" "http://www.w3.org/Graphics/SVG/1.1/DTD/svg11.dtd">
<svg version="1.1" id="Layer_1" xmlns="http://www.w3.org/2000/svg" xmlns:xlink="http://www.w3.org/1999/xlink" x="0px" y="0px"
	 width="100px" height="100px" viewBox="0 0 100 100" enable-background="new 0 0 100 100" xml:space="preserve">
<path fill="#858585" d="M60.545,32.944l-5.688,5.687c2.93,2.9,4.744,6.922,4.744,11.369c0,4.445-1.814,8.469-4.744,11.368
	l5.688,5.687c4.361-4.367,7.059-10.396,7.059-17.055C67.604,43.34,64.906,37.312,60.545,32.944z"/>
<path fill="#858585" d="M83.605,50c0-11.075-4.502-21.099-11.772-28.343l-5.63,5.63c5.809,5.815,9.4,13.844,9.4,22.713
	c0,8.868-3.592,16.896-9.4,22.713l5.63,5.63C79.104,71.1,83.605,61.075,83.605,50z"/>
<path fill="#858585" d="M99.607,50c0-15.495-6.293-29.519-16.459-39.659l-5.658,5.658C86.21,24.691,91.605,36.715,91.605,50
	c0,13.284-5.396,25.309-14.115,34l5.658,5.658C93.314,79.52,99.607,65.494,99.607,50z"/>
<polygon fill="#858585" points="0,66 21.085,66 44,87.208 44,12.791 21.517,34 0,34 "/>
</svg>
