<?xml version="1.0" encoding="utf-8"?>
<!-- Generator: Adobe Illustrator 16.0.0, SVG Export Plug-In . SVG Version: 6.00 Build 0)  -->
<!DOCTYPE svg PUBLIC "-//W3C//DTD SVG 1.1//EN" "http://www.w3.org/Graphics/SVG/1.1/DTD/svg11.dtd">
<svg version="1.1" id="Layer_1" xmlns="http://www.w3.org/2000/svg" xmlns:xlink="http://www.w3.org/1999/xlink" x="0px" y="0px"
	 width="100px" height="100px" viewBox="0 0 100 100" enable-background="new 0 0 100 100" xml:space="preserve">
<g>
	<circle cx="50" cy="50" r="23.896"/>
</g>
<g>
	<path d="M50,100c-1.827,0-3.308-1.48-3.308-3.309V79.619c0-1.827,1.48-3.309,3.308-3.309s3.309,1.48,3.309,3.309v17.072
		C53.309,98.52,51.827,100,50,100z"/>
</g>
<g>
	<path d="M50,23.688c-1.827,0-3.308-1.481-3.308-3.308V3.308C46.692,1.481,48.173,0,50,0s3.309,1.481,3.309,3.308v17.073
		C53.309,22.208,51.827,23.688,50,23.688z"/>
</g>
<g>
	<path d="M20.381,53.309H3.308C1.481,53.309,0,51.827,0,50s1.481-3.308,3.308-3.308h17.073c1.827,0,3.308,1.48,3.308,3.308
		C23.688,51.827,22.208,53.309,20.381,53.309z"/>
</g>
<g>
	<path d="M96.691,53.309H79.619c-1.827,0-3.309-1.481-3.309-3.309s1.48-3.308,3.309-3.308h17.072c1.826,0,3.309,1.48,3.309,3.308
		C100,51.827,98.52,53.309,96.691,53.309z"/>
</g>
<g>
	<path d="M13.254,90.055c-0.847,0-1.693-0.324-2.339-0.97c-1.292-1.292-1.292-3.386,0-4.678L24.352,70.97
		c1.292-1.292,3.386-1.292,4.678,0s1.292,3.386,0,4.679L15.593,89.085C14.947,89.73,14.101,90.055,13.254,90.055z"/>
</g>
<g>
	<path d="M73.311,29.998c-0.847,0-1.692-0.323-2.34-0.969c-1.291-1.292-1.291-3.386,0-4.678l13.438-13.437
		c1.292-1.292,3.386-1.292,4.679,0c1.291,1.292,1.291,3.386,0,4.678L75.648,29.029C75.003,29.675,74.157,29.998,73.311,29.998z"/>
</g>
<g>
	<path d="M26.69,29.999c-0.847,0-1.692-0.323-2.339-0.969L10.915,15.593c-1.292-1.292-1.292-3.386,0-4.678
		c1.293-1.292,3.387-1.292,4.678,0L29.03,24.352c1.292,1.292,1.292,3.386,0,4.678C28.384,29.676,27.537,29.999,26.69,29.999z"/>
</g>
<g>
	<path d="M86.746,90.055c-0.848,0-1.691-0.324-2.339-0.97L70.971,75.648c-1.291-1.293-1.291-3.387,0-4.679
		c1.293-1.292,3.387-1.292,4.678,0l13.438,13.438c1.291,1.292,1.291,3.386,0,4.678C88.439,89.73,87.593,90.055,86.746,90.055z"/>
</g>
</svg>
